<?xml version="1.0" encoding="utf-8"?>
<!-- Generator: Adobe Illustrator 19.0.1, SVG Export Plug-In . SVG Version: 6.00 Build 0)  -->
<svg version="1.1" id="Layer_1" xmlns="http://www.w3.org/2000/svg" xmlns:xlink="http://www.w3.org/1999/xlink" x="0px" y="0px"
	 viewBox="0 0 16 16" style="enable-background:new 0 0 16 16;" xml:space="preserve">
<style type="text/css">
	.st0{fill:#B8B5B5;stroke:#FFFFFF;stroke-width:2;stroke-miterlimit:10;}
	.st1{fill:#B8B5B5;}
</style>
<path class="st0" d="M14,13.5L13.7,13l-0.9-0.4l-1.1-0.4l-0.9-0.3l0.5-0.3l0.8-0.7l0.1-0.3v-0.5l-0.2-1.2l-0.5-1.4l-1-2l-0.3-0.1
	L9.2,5.7L8.9,5.5L8.6,5.3l0-0.2l0-0.3l0.3-0.2l0.3-0.5l0.2,0.3l0.2-0.4l0.2-0.3L9.7,2.6V2.5L9.5,2.3L9.3,2.1V1.8L9.2,1.6L8.6,1.4
	L8.5,1.2V0.8L8,0.6L7.5,0.8v0.4L7.4,1.4L6.8,1.6L6.7,1.8v0.3L6.5,2.3L6.3,2.5v0.1L6.2,3.9l0.2,0.3l0.2,0.4l0.2-0.3l0.3,0.5l0.3,0.2
	l0,0.3l0,0.2L7.1,5.5L6.8,5.7L5.6,5.6L5.3,5.7l-1,2L3.8,9.1l-0.2,1.2v0.5l0.1,0.3l0.8,0.7l0.5,0.3l-0.9,0.3l-1.1,0.4L2.3,13L2,13.5
	l-0.1,0.4v0.4L2,14.6l0.5,0.3h1L4.4,15h0.7L6,14.7l1-0.3l0.7,0l0.3,0l0.3,0l0.7,0l1,0.3l0.9,0.3h0.7l0.9-0.1h1l0.5-0.3l0.2-0.3v-0.4
	L14,13.5z M5.8,10.7v0.4l-0.4-0.1l-0.3-0.2l-0.3-0.2v-0.1l0.8-1.8l0.1,1.4V10.7z M10.5,11.1l-0.4,0.1v-0.4v-0.7l0.1-1.4l0.8,1.8v0.1
	l-0.3,0.2L10.5,11.1z"/>
<path class="st1" d="M14,13.5L13.7,13l-0.9-0.4l-1.1-0.4l-0.9-0.3l0.5-0.3l0.8-0.7l0.1-0.3v-0.5l-0.2-1.2l-0.5-1.4l-1-2l-0.3-0.1
	L9.2,5.7L8.9,5.5L8.6,5.3l0-0.2l0-0.3l0.3-0.2l0.3-0.5l0.2,0.3l0.2-0.4l0.2-0.3L9.7,2.6V2.5L9.5,2.3L9.3,2.1V1.8L9.2,1.6L8.6,1.4
	L8.5,1.2V0.8L8,0.6L7.5,0.8v0.4L7.4,1.4L6.8,1.6L6.7,1.8v0.3L6.5,2.3L6.3,2.5v0.1L6.2,3.9l0.2,0.3l0.2,0.4l0.2-0.3l0.3,0.5l0.3,0.2
	l0,0.3l0,0.2L7.1,5.5L6.8,5.7L5.6,5.6L5.3,5.7l-1,2L3.8,9.1l-0.2,1.2v0.5l0.1,0.3l0.8,0.7l0.5,0.3l-0.9,0.3l-1.1,0.4L2.3,13L2,13.5
	l-0.1,0.4v0.4L2,14.6l0.5,0.3h1L4.4,15h0.7L6,14.7l1-0.3l0.7,0l0.3,0l0.3,0l0.7,0l1,0.3l0.9,0.3h0.7l0.9-0.1h1l0.5-0.3l0.2-0.3v-0.4
	L14,13.5z M5.8,10.7v0.4l-0.4-0.1l-0.3-0.2l-0.3-0.2v-0.1l0.8-1.8l0.1,1.4V10.7z M10.5,11.1l-0.4,0.1v-0.4v-0.7l0.1-1.4l0.8,1.8v0.1
	l-0.3,0.2L10.5,11.1z"/>
</svg>
